<svg id="Layer_1" data-name="Layer 1" xmlns="http://www.w3.org/2000/svg" viewBox="0 0 360 360"><defs><style>.cls-1{fill:#ff7bac;}.cls-2{fill:#f2f2f2;}</style></defs><circle class="cls-1" cx="165.5" cy="159.5" r="57.5"/><ellipse class="cls-2" cx="150.5" cy="140" rx="6.5" ry="12"/><ellipse class="cls-2" cx="180.5" cy="140" rx="6.5" ry="12"/><path class="cls-2" d="M201.71,173.45a40.83,40.83,0,0,0-13.11-5.72,6,6,0,0,0-4.14,11.13c-3.06,8.33-11.29,14.56-20.36,14.28-8.39-.25-15.53-5.95-18.69-13.44a6.12,6.12,0,0,0,2.7-6.7,6.05,6.05,0,0,0-7.32-4.16,73,73,0,0,0-12.49,4.5c-2.92,1.33-3.64,5.56-2.13,8.14,1.72,3,5.09,3.46,8,2.2,4.8,12.14,16.66,21,29.95,21.37,13.84.33,26.32-8.94,31.31-21.5l.29.19c2.67,1.79,6.59.51,8.14-2.14A6.06,6.06,0,0,0,201.71,173.45Z"/></svg>